<svg xmlns="http://www.w3.org/2000/svg" viewBox="0 0 1920 1080"><g transform="
          rotate(342 960 540) 
          translate(-480.40325937659145 -270.2268333993327)
          scale(1.500420061850616)
        "><rect width="1920" height="1080" fill="rgb(238, 238, 238)"></rect><g transform="translate(0, 0)"><path fill="rgb(221, 225, 232)" fill-opacity="1" d="M0,151.261L45.714,150.032C91.429,148.803,182.857,146.345,274.286,145.963C365.714,145.582,457.143,147.279,548.571,147.469C640,147.66,731.429,146.345,822.857,129.936C914.286,113.526,1005.714,82.021,1097.143,79.361C1188.571,76.7,1280,102.883,1371.429,94.858C1462.857,86.834,1554.286,44.601,1645.714,42.206C1737.143,39.811,1828.571,77.253,1874.286,95.975L1920,114.696L1920,1080L1874.286,1080C1828.571,1080,1737.143,1080,1645.714,1080C1554.286,1080,1462.857,1080,1371.429,1080C1280,1080,1188.571,1080,1097.143,1080C1005.714,1080,914.286,1080,822.857,1080C731.429,1080,640,1080,548.571,1080C457.143,1080,365.714,1080,274.286,1080C182.857,1080,91.429,1080,45.714,1080L0,1080Z"></path></g><g transform="translate(0, 154.28571428571428)"><path fill="rgb(203, 213, 226)" fill-opacity="1" d="M0,58.326L45.714,50.329C91.429,42.332,182.857,26.338,274.286,34.594C365.714,42.85,457.143,75.355,548.571,81.216C640,87.078,731.429,66.294,822.857,55.892C914.286,45.489,1005.714,45.467,1097.143,60.546C1188.571,75.625,1280,105.805,1371.429,122.013C1462.857,138.222,1554.286,140.459,1645.714,122.004C1737.143,103.548,1828.571,64.398,1874.286,44.824L1920,25.249L1920,925.714L1874.286,925.714C1828.571,925.714,1737.143,925.714,1645.714,925.714C1554.286,925.714,1462.857,925.714,1371.429,925.714C1280,925.714,1188.571,925.714,1097.143,925.714C1005.714,925.714,914.286,925.714,822.857,925.714C731.429,925.714,640,925.714,548.571,925.714C457.143,925.714,365.714,925.714,274.286,925.714C182.857,925.714,91.429,925.714,45.714,925.714L0,925.714Z"></path></g><g transform="translate(0, 308.57142857142856)"><path fill="rgb(186, 200, 220)" fill-opacity="1" d="M0,45.909L45.714,57.56C91.429,69.211,182.857,92.514,274.286,108.999C365.714,125.483,457.143,135.15,548.571,128.792C640,122.434,731.429,100.051,822.857,77.277C914.286,54.503,1005.714,31.338,1097.143,18.585C1188.571,5.831,1280,3.489,1371.429,17.605C1462.857,31.722,1554.286,62.296,1645.714,71.907C1737.143,81.517,1828.571,70.163,1874.286,64.486L1920,58.809L1920,771.429L1874.286,771.429C1828.571,771.429,1737.143,771.429,1645.714,771.429C1554.286,771.429,1462.857,771.429,1371.429,771.429C1280,771.429,1188.571,771.429,1097.143,771.429C1005.714,771.429,914.286,771.429,822.857,771.429C731.429,771.429,640,771.429,548.571,771.429C457.143,771.429,365.714,771.429,274.286,771.429C182.857,771.429,91.429,771.429,45.714,771.429L0,771.429Z"></path></g><g transform="translate(0, 462.85714285714283)"><path fill="rgb(168, 188, 214)" fill-opacity="1" d="M0,22.064L45.714,24.842C91.429,27.62,182.857,33.177,274.286,37.118C365.714,41.059,457.143,43.385,548.571,57.024C640,70.663,731.429,95.615,822.857,112.607C914.286,129.6,1005.714,138.632,1097.143,144.051C1188.571,149.469,1280,151.272,1371.429,140.839C1462.857,130.405,1554.286,107.735,1645.714,89.698C1737.143,71.661,1828.571,58.257,1874.286,51.555L1920,44.854L1920,617.143L1874.286,617.143C1828.571,617.143,1737.143,617.143,1645.714,617.143C1554.286,617.143,1462.857,617.143,1371.429,617.143C1280,617.143,1188.571,617.143,1097.143,617.143C1005.714,617.143,914.286,617.143,822.857,617.143C731.429,617.143,640,617.143,548.571,617.143C457.143,617.143,365.714,617.143,274.286,617.143C182.857,617.143,91.429,617.143,45.714,617.143L0,617.143Z"></path></g><g transform="translate(0, 617.1428571428571)"><path fill="rgb(151, 175, 208)" fill-opacity="1" d="M0,14.873L45.714,34.635C91.429,54.396,182.857,93.919,274.286,116.643C365.714,139.367,457.143,145.291,548.571,148.463C640,151.636,731.429,152.056,822.857,143.263C914.286,134.471,1005.714,116.465,1097.143,105.222C1188.571,93.978,1280,89.496,1371.429,80.339C1462.857,71.182,1554.286,57.35,1645.714,68.276C1737.143,79.201,1828.571,114.885,1874.286,132.727L1920,150.569L1920,462.857L1874.286,462.857C1828.571,462.857,1737.143,462.857,1645.714,462.857C1554.286,462.857,1462.857,462.857,1371.429,462.857C1280,462.857,1188.571,462.857,1097.143,462.857C1005.714,462.857,914.286,462.857,822.857,462.857C731.429,462.857,640,462.857,548.571,462.857C457.143,462.857,365.714,462.857,274.286,462.857C182.857,462.857,91.429,462.857,45.714,462.857L0,462.857Z"></path></g><g transform="translate(0, 771.4285714285714)"><path fill="rgb(133, 163, 202)" fill-opacity="1" d="M0,132.803L45.714,134.08C91.429,135.358,182.857,137.913,274.286,134.949C365.714,131.984,457.143,123.501,548.571,102.338C640,81.175,731.429,47.332,822.857,51.385C914.286,55.438,1005.714,97.386,1097.143,106.916C1188.571,116.447,1280,93.56,1371.429,74.098C1462.857,54.637,1554.286,38.601,1645.714,38.27C1737.143,37.94,1828.571,53.315,1874.286,61.002L1920,68.69L1920,308.571L1874.286,308.571C1828.571,308.571,1737.143,308.571,1645.714,308.571C1554.286,308.571,1462.857,308.571,1371.429,308.571C1280,308.571,1188.571,308.571,1097.143,308.571C1005.714,308.571,914.286,308.571,822.857,308.571C731.429,308.571,640,308.571,548.571,308.571C457.143,308.571,365.714,308.571,274.286,308.571C182.857,308.571,91.429,308.571,45.714,308.571L0,308.571Z"></path></g><g transform="translate(0, 925.7142857142857)"><path fill="rgb(116, 150, 196)" fill-opacity="1" d="M0,151.116L45.714,139.026C91.429,126.936,182.857,102.757,274.286,88.508C365.714,74.26,457.143,69.943,548.571,58.47C640,46.997,731.429,28.369,822.857,18.834C914.286,9.299,1005.714,8.857,1097.143,17.245C1188.571,25.632,1280,42.848,1371.429,66.182C1462.857,89.515,1554.286,118.965,1645.714,128.95C1737.143,138.936,1828.571,129.458,1874.286,124.719L1920,119.98L1920,154.286L1874.286,154.286C1828.571,154.286,1737.143,154.286,1645.714,154.286C1554.286,154.286,1462.857,154.286,1371.429,154.286C1280,154.286,1188.571,154.286,1097.143,154.286C1005.714,154.286,914.286,154.286,822.857,154.286C731.429,154.286,640,154.286,548.571,154.286C457.143,154.286,365.714,154.286,274.286,154.286C182.857,154.286,91.429,154.286,45.714,154.286L0,154.286Z"></path></g></g></svg>